<svg width="116" height="22" viewBox="0 0 116 22" fill="none" xmlns="http://www.w3.org/2000/svg">
<g clip-path="url(#clip0_1_3669)">
<path d="M-0.328125 -0.09375H6.67188V8.5H13.1719V-0.09375H20.1719V22H13.1719V13H6.67188V22H-0.328125V-0.09375Z" fill="black"/>
<path d="M25.5156 -0.09375H41.0156V4H32.5156V8.67188H40.0156V12.6719H32.5156V17.5H41.0156V22H25.5156V-0.09375Z" fill="black"/>
<path d="M46.1406 -0.09375H61.6406V4H53.1406V8.67188H60.6406V12.6719H53.1406V17.5H61.6406V22H46.1406V-0.09375Z" fill="black"/>
<path d="M66.75 -0.09375H73.75V17.5H81.25V22H66.75V-0.09375Z" fill="black"/>
<path d="M84.7344 -0.09375H91.7344V22H84.7344V-0.09375Z" fill="black"/>
<path d="M110.984 11L116.484 22H107.984L105.172 13.6719L101.391 22H94.9844L100.484 11L94.9844 -0.09375H103.484L106.859 7.73438L110.484 -0.09375H116.484L110.984 11Z" fill="black"/>
</g>
<defs>
<clipPath id="clip0_1_3669">
<rect width="116" height="22" fill="white"/>
</clipPath>
</defs>
</svg>
